M48
; DRILL file KiCad 10.0.4 date 2026-08-16T15:06:50
; FORMAT={-:-/ absolute / metric / decimal}
; #@! TF.CreationDate,2026-08-16T15:06:50+01:00
; #@! TF.GenerationSoftware,Kicad,Pcbnew,10.0.4
; #@! TF.FileFunction,Plated,1,2,PTH
FMAT,2
METRIC
; #@! TA.AperFunction,Plated,PTH,ViaDrill
T1C0.381
; #@! TA.AperFunction,Plated,PTH,ComponentDrill
T2C0.700
; #@! TA.AperFunction,Plated,PTH,ComponentDrill
T3C0.750
; #@! TA.AperFunction,Plated,PTH,ViaDrill
T4C0.762
; #@! TA.AperFunction,Plated,PTH,ComponentDrill
T5C0.800
; #@! TA.AperFunction,Plated,PTH,ComponentDrill
T6C1.000
; #@! TA.AperFunction,Plated,PTH,ComponentDrill
T7C1.016
; #@! TA.AperFunction,Plated,PTH,ComponentDrill
T8C1.020
; #@! TA.AperFunction,Plated,PTH,ComponentDrill
T9C1.100
; #@! TA.AperFunction,Plated,PTH,ComponentDrill
T10C1.200
; #@! TA.AperFunction,Plated,PTH,ComponentDrill
T11C1.400
; #@! TA.AperFunction,Plated,PTH,ComponentDrill
T12C1.935
; #@! TA.AperFunction,Plated,PTH,ComponentDrill
T13C3.175
%
G90
G05
T1
X59.69Y-33.274
X59.69Y-42.164
T2
X4.347Y-37.176
X11.42Y-42.062
X11.42Y-44.517
X11.42Y-47.0
X11.42Y-57.15
X11.42Y-59.7
X11.42Y-62.22
X11.42Y-64.7
X11.42Y-69.9
X11.42Y-72.4
X11.42Y-74.92
X11.42Y-77.46
X11.42Y-80.0
X11.42Y-82.55
X17.047Y-37.176
X19.793Y-34.544
X24.12Y-42.062
X24.12Y-44.517
X24.12Y-47.0
X24.12Y-57.15
X24.12Y-59.7
X24.12Y-62.22
X24.12Y-64.7
X24.12Y-69.9
X24.12Y-72.4
X24.12Y-74.92
X24.12Y-77.46
X24.12Y-80.0
X24.12Y-82.55
X32.493Y-34.544
X35.04Y-34.388
X36.74Y-70.01
X36.82Y-44.45
X36.82Y-46.98
X36.82Y-49.52
X36.82Y-57.15
X36.82Y-59.69
X36.82Y-64.76
X36.909Y-84.58
X47.74Y-34.388
X49.44Y-70.01
X49.52Y-44.45
X49.52Y-46.98
X49.52Y-49.52
X49.52Y-57.15
X49.52Y-59.69
X49.52Y-64.76
X49.609Y-84.58
X51.352Y-12.87
X51.352Y-25.27
X52.675Y-85.126
X52.75Y-59.677
X52.753Y-48.18
X52.76Y-67.22
X52.765Y-64.68
X53.848Y-12.944
X53.848Y-25.344
X64.03Y-12.95
X64.03Y-25.35
X65.375Y-85.126
X65.45Y-59.677
X65.453Y-48.18
X65.46Y-67.22
X65.465Y-64.68
X69.434Y-23.028
X69.434Y-25.568
X69.437Y-35.719
X69.447Y-33.191
X69.45Y-30.648
X69.463Y-20.488
X69.466Y-28.137
X82.134Y-23.028
X82.134Y-25.568
X82.137Y-35.719
X82.147Y-33.191
X82.15Y-30.648
X82.163Y-20.488
X82.166Y-28.137
X85.78Y-69.767
X85.78Y-72.314
X85.78Y-74.85
X85.78Y-77.36
X85.78Y-79.93
X85.78Y-82.47
X85.78Y-85.042
X85.78Y-87.54
X85.78Y-90.06
X85.78Y-92.62
X95.942Y-106.734
X95.993Y-104.143
X98.48Y-69.767
X98.48Y-72.314
X98.48Y-74.85
X98.48Y-77.36
X98.48Y-79.93
X98.48Y-82.47
X98.48Y-85.042
X98.48Y-87.54
X98.48Y-90.06
X98.48Y-92.62
X102.28Y-71.101
X102.28Y-73.663
X102.28Y-76.156
X102.28Y-78.788
X102.28Y-81.251
X102.28Y-83.779
X107.246Y-16.487
X107.246Y-29.187
X108.642Y-106.734
X108.693Y-104.143
X114.98Y-71.101
X114.98Y-73.663
X114.98Y-76.156
X114.98Y-78.788
X114.98Y-81.251
X114.98Y-83.779
X167.059Y-98.803
X167.059Y-101.387
X167.207Y-53.831
X167.238Y-56.347
X167.238Y-58.843
X167.249Y-61.305
X179.759Y-98.803
X179.759Y-101.387
X179.907Y-53.831
X179.938Y-56.347
X179.938Y-58.843
X179.95Y-61.305
X182.305Y-96.885
X182.33Y-99.431
X182.478Y-62.145
X182.478Y-67.225
X195.005Y-96.885
X195.03Y-99.431
X195.178Y-62.145
X195.178Y-67.225
X197.698Y-75.965
X197.718Y-57.065
X197.718Y-62.145
X197.718Y-64.685
X197.718Y-67.225
X210.398Y-75.965
X210.418Y-57.065
X210.418Y-62.145
X210.418Y-64.685
X210.418Y-67.225
T3
X10.792Y-39.55
X13.408Y-39.55
X16.05Y-39.55
X19.6Y-39.5
X22.242Y-39.5
X24.858Y-39.5
X36.741Y-54.559
X39.357Y-54.559
X41.999Y-54.559
X52.827Y-54.623
X55.372Y-52.006
X55.372Y-54.623
X55.372Y-57.264
X62.754Y-51.94
X62.754Y-54.581
X62.754Y-57.198
X65.299Y-54.581
X121.447Y-23.533
X121.447Y-26.149
X121.447Y-28.791
X168.907Y-107.679
X171.523Y-107.679
X174.165Y-107.679
X195.101Y-84.747
X195.101Y-87.363
X195.101Y-90.005
X200.13Y-84.747
X200.13Y-87.389
X200.13Y-90.005
T4
X3.81Y-76.454
X3.81Y-88.392
X5.6Y-52.876
X6.284Y-38.98
X8.093Y-35.765
X8.89Y-74.93
X9.015Y-67.468
X10.668Y-90.932
X10.668Y-94.742
X14.478Y-121.412
X14.732Y-87.122
X19.02Y-68.137
X22.352Y-87.122
X22.86Y-94.742
X24.784Y-121.375
X27.432Y-41.402
X28.702Y-83.312
X29.21Y-67.31
X29.21Y-81.28
X29.464Y-63.5
X29.718Y-91.948
X30.988Y-85.09
X30.988Y-88.9
X31.776Y-72.416
X32.258Y-94.742
X33.02Y-91.948
X33.528Y-70.358
X35.042Y-121.412
X39.878Y-88.392
X40.64Y-86.317
X43.18Y-90.932
X43.688Y-86.36
X43.942Y-83.82
X44.45Y-65.354
X45.032Y-121.282
X47.02Y-52.1
X47.396Y-90.17
X50.038Y-76.2
X55.194Y-93.308
X55.42Y-121.25
X55.88Y-72.39
X56.388Y-59.69
X56.388Y-80.01
X57.658Y-66.04
X57.759Y-93.416
X58.42Y-71.12
X58.42Y-73.66
X58.42Y-76.2
X59.731Y-92.112
X59.796Y-78.766
X60.198Y-105.41
X60.96Y-73.152
X61.468Y-68.58
X61.468Y-85.09
X61.552Y-91.498
X62.23Y-71.12
X62.425Y-93.33
X63.5Y-27.33
X65.345Y-121.218
X65.431Y-90.797
X65.431Y-95.129
X66.465Y-31.242
X67.33Y-36.83
X69.811Y-107.989
X71.11Y-94.601
X71.12Y-49.53
X71.12Y-110.49
X71.12Y-114.3
X71.882Y-59.69
X72.39Y-64.77
X73.152Y-12.7
X73.152Y-55.88
X74.168Y-62.23
X74.93Y-53.34
X74.93Y-72.39
X75.616Y-85.674
X75.636Y-121.207
X76.2Y-74.93
X76.2Y-77.47
X76.2Y-92.71
X76.832Y-63.47
X76.962Y-4.572
X76.962Y-69.85
X77.47Y-87.63
X78.08Y-68.275
X78.232Y-40.64
X78.232Y-44.45
X78.232Y-46.99
X78.74Y-31.75
X78.74Y-65.278
X78.74Y-74.93
X78.74Y-81.28
X79.502Y-16.51
X80.286Y-110.258
X81.28Y-55.88
X81.28Y-90.678
X81.28Y-99.06
X81.534Y-104.648
X83.312Y-91.516
X84.074Y-29.21
X84.328Y-26.67
X85.808Y-121.164
X86.36Y-66.04
X88.392Y-101.6
X89.154Y-66.802
X89.154Y-98.806
X89.154Y-107.696
X89.51Y-39.878
X89.586Y-88.9
X89.662Y-69.215
X89.916Y-71.882
X90.17Y-34.29
X90.17Y-59.436
X90.17Y-78.486
X90.17Y-104.14
X90.378Y-10.826
X90.678Y-46.99
X90.932Y-41.91
X90.932Y-44.399
X90.932Y-57.15
X90.932Y-92.71
X91.44Y-20.32
X92.71Y-43.18
X92.71Y-66.04
X92.964Y-106.68
X93.472Y-39.37
X93.472Y-63.5
X93.98Y-12.7
X93.98Y-93.472
X94.234Y-46.99
X94.234Y-49.53
X94.742Y-36.83
X94.742Y-65.278
X95.25Y-86.36
X95.504Y-39.37
X95.847Y-113.679
X96.012Y-108.966
X97.282Y-62.738
X97.79Y-26.162
X98.044Y-10.922
X98.044Y-16.51
X98.298Y-38.862
X98.552Y-29.21
X98.552Y-119.126
X98.552Y-123.368
X98.806Y-95.25
X99.06Y-31.75
X99.771Y-21.666
X100.33Y-11.938
X100.33Y-27.94
X100.457Y-50.8
X100.584Y-39.37
X100.584Y-53.34
X100.584Y-61.506
X100.838Y-69.596
X101.092Y-93.218
X101.092Y-95.25
X101.092Y-123.368
X102.108Y-13.97
X102.852Y-104.121
X102.87Y-109.728
X103.632Y-97.028
X104.14Y-125.171
X104.902Y-11.43
X104.902Y-105.41
X105.41Y-76.2
X105.41Y-78.74
X105.41Y-81.788
X105.41Y-108.204
X106.14Y-55.915
X106.172Y-61.468
X106.68Y-96.52
X107.391Y-70.358
X107.442Y-9.652
X107.442Y-79.756
X107.45Y-25.429
X108.61Y-77.47
X109.22Y-36.83
X109.22Y-96.52
X109.982Y-60.198
X109.982Y-74.93
X109.982Y-82.55
X110.49Y-7.62
X110.49Y-11.938
X110.49Y-39.37
X111.252Y-84.328
X111.76Y-88.9
X111.887Y-58.928
X112.522Y-5.08
X112.522Y-53.34
X112.522Y-61.722
X112.649Y-71.628
X112.776Y-24.638
X113.03Y-7.62
X113.03Y-86.36
X113.081Y-50.8
X113.284Y-45.72
X113.792Y-2.54
X113.792Y-17.78
X113.792Y-48.26
X114.3Y-90.17
X114.31Y-15.27
X117.602Y-59.69
X119.409Y-35.52
X119.634Y-45.72
X120.904Y-74.93
X121.412Y-41.148
X121.412Y-84.328
X122.174Y-16.51
X122.174Y-31.75
X122.428Y-49.53
X122.682Y-93.218
X124.714Y-59.69
X125.73Y-94.996
X125.857Y-9.322
X126.492Y-102.108
X127.0Y-50.8
X127.0Y-98.298
X127.762Y-95.758
X128.016Y-46.99
X128.118Y-43.18
X128.651Y-45.212
X128.702Y-31.75
X128.702Y-57.15
X129.032Y-34.29
X129.184Y-27.94
X129.286Y-20.32
X129.286Y-53.848
X129.616Y-23.495
X129.794Y-64.77
X130.302Y-8.204
X131.826Y-39.98
X131.826Y-65.278
X132.08Y-87.63
X132.842Y-60.198
X132.842Y-90.17
X134.087Y-8.23
X134.62Y-97.028
X135.382Y-101.348
X136.652Y-8.28
X136.652Y-52.578
X136.652Y-104.14
X137.414Y-39.37
X137.414Y-46.99
X137.414Y-57.15
X137.414Y-66.04
X137.922Y-44.45
X137.922Y-49.53
X137.922Y-55.118
X139.09Y-8.28
X141.681Y-8.204
X142.24Y-77.216
X142.748Y-44.45
X142.9Y-31.75
X143.002Y-55.118
X143.002Y-66.548
X143.256Y-46.99
X143.256Y-52.578
X143.51Y-93.218
X143.764Y-79.756
X144.145Y-8.23
X144.145Y-14.453
X144.526Y-20.32
X145.034Y-36.068
X145.258Y-38.638
X145.288Y-40.386
X145.288Y-49.022
X145.542Y-28.448
X145.542Y-33.528
X146.05Y-53.34
X146.05Y-58.928
X146.304Y-25.4
X146.558Y-44.958
X146.812Y-8.23
X147.574Y-66.548
X147.828Y-60.96
X148.336Y-48.26
X148.59Y-56.642
X148.844Y-12.7
X148.844Y-30.48
X149.352Y-8.28
X149.352Y-14.478
X149.352Y-124.968
X150.114Y-60.706
X151.13Y-9.398
X151.384Y-16.51
X151.384Y-69.088
X151.384Y-72.39
X151.638Y-58.42
X151.892Y-61.468
X152.146Y-37.49
X152.248Y-48.26
X152.4Y-77.216
X153.162Y-12.7
X153.162Y-25.4
X153.416Y-22.86
X153.924Y-8.382
X153.924Y-30.48
X155.194Y-10.16
X155.194Y-67.31
X155.689Y-91.44
X156.972Y-8.382
X157.431Y-25.335
X157.734Y-60.706
X157.734Y-67.818
X157.734Y-98.298
X158.242Y-57.658
X158.242Y-94.488
X159.004Y-53.34
X159.512Y-8.89
X159.512Y-65.278
X160.274Y-62.052
X160.782Y-67.818
X160.782Y-102.87
X160.782Y-106.934
X161.036Y-16.51
X161.036Y-42.418
X162.56Y-10.922
X162.814Y-8.89
X163.322Y-53.848
X163.322Y-57.658
X163.322Y-96.266
X163.449Y-100.838
X163.576Y-71.12
X164.084Y-92.456
X164.592Y-8.89
X166.116Y-19.05
X166.116Y-41.91
X166.624Y-51.308
X166.624Y-84.328
X166.878Y-29.21
X167.08Y-8.928
X167.386Y-26.518
X168.91Y-117.783
X169.672Y-8.89
X169.672Y-97.536
X170.18Y-47.498
X170.674Y-66.534
X170.898Y-63.51
X170.942Y-69.088
X171.694Y-71.638
X171.704Y-16.51
X171.704Y-20.32
X171.731Y-103.913
X172.212Y-60.706
X172.212Y-74.168
X172.771Y-27.813
X172.847Y-22.606
X172.974Y-77.978
X173.482Y-70.358
X174.244Y-8.89
X174.498Y-51.918
X174.625Y-55.118
X176.124Y-81.712
X176.784Y-8.89
X176.784Y-74.168
X177.8Y-83.82
X179.324Y-8.89
X179.324Y-108.712
X179.324Y-120.904
X180.086Y-93.218
X181.102Y-46.228
X181.28Y-124.905
X181.864Y-8.89
X181.864Y-82.296
X182.372Y-30.48
X182.372Y-104.648
X183.642Y-45.466
X184.404Y-8.89
X184.404Y-83.058
X184.94Y-51.9
X185.42Y-47.498
X186.182Y-34.036
X186.182Y-103.886
X186.436Y-70.358
X186.69Y-32.258
X186.944Y-8.89
X188.163Y-66.04
X188.214Y-73.406
X188.722Y-37.338
X188.732Y-40.4
X189.484Y-55.118
X189.484Y-93.98
X190.246Y-89.408
X190.754Y-74.168
X191.262Y-26.67
X191.262Y-60.198
X191.262Y-70.358
X191.262Y-96.774
X191.262Y-99.314
X192.786Y-58.42
X193.294Y-39.878
X193.294Y-72.898
X193.294Y-83.566
X193.802Y-79.756
X195.326Y-48.006
X195.326Y-51.816
X197.104Y-26.67
X197.104Y-81.788
X197.358Y-48.006
X197.612Y-72.898
X197.612Y-108.458
X198.374Y-41.148
X198.374Y-79.248
X200.152Y-47.498
X200.152Y-93.761
X200.165Y-106.426
X200.406Y-124.714
X200.66Y-61.976
X200.895Y-56.877
X202.174Y-91.43
X202.184Y-67.31
X203.44Y-58.179
X203.454Y-64.516
X204.959Y-25.14
X205.232Y-74.676
X209.55Y-89.408
X210.566Y-37.846
X210.568Y-41.144
X210.82Y-95.504
T5
X4.251Y-34.45
X6.845Y-99.09
X6.845Y-101.63
X6.845Y-104.17
X6.845Y-106.71
X6.845Y-109.25
X6.845Y-111.79
X6.845Y-114.33
X6.845Y-116.87
X6.858Y-94.742
X11.399Y-49.54
X11.42Y-67.39
X14.465Y-99.09
X14.465Y-101.63
X14.465Y-104.17
X14.465Y-106.71
X14.465Y-109.25
X14.465Y-111.79
X14.465Y-114.33
X14.465Y-116.87
X16.951Y-34.45
X17.018Y-121.387
X17.019Y-99.067
X17.019Y-101.607
X17.019Y-104.147
X17.019Y-106.687
X17.019Y-109.227
X17.019Y-111.767
X17.019Y-114.307
X17.019Y-116.847
X19.558Y-94.742
X24.099Y-49.54
X24.12Y-67.39
X24.639Y-99.067
X24.639Y-101.607
X24.639Y-104.147
X24.639Y-106.687
X24.639Y-109.227
X24.639Y-111.767
X24.639Y-114.307
X24.639Y-116.847
X26.67Y-44.45
X26.67Y-46.99
X26.67Y-49.53
X26.67Y-52.07
X26.67Y-54.61
X26.67Y-57.15
X26.67Y-59.69
X26.67Y-62.23
X26.67Y-64.77
X27.158Y-94.607
X27.213Y-99.039
X27.213Y-101.579
X27.213Y-104.119
X27.213Y-106.659
X27.213Y-109.199
X27.213Y-111.739
X27.213Y-114.279
X27.213Y-116.819
X29.718Y-121.387
X34.29Y-44.45
X34.29Y-46.99
X34.29Y-49.53
X34.29Y-52.07
X34.29Y-54.61
X34.29Y-57.15
X34.29Y-59.69
X34.29Y-62.23
X34.29Y-64.77
X34.833Y-99.039
X34.833Y-101.579
X34.833Y-104.119
X34.833Y-106.659
X34.833Y-109.199
X34.833Y-111.739
X34.833Y-114.279
X34.833Y-116.819
X35.04Y-36.909
X35.04Y-39.45
X35.04Y-41.9
X36.82Y-52.15
X36.82Y-62.3
X36.82Y-67.45
X36.887Y-87.1
X36.932Y-81.788
X37.398Y-99.045
X37.398Y-101.585
X37.398Y-104.125
X37.398Y-106.665
X37.398Y-109.205
X37.398Y-111.745
X37.398Y-114.285
X37.398Y-116.825
X37.457Y-121.412
X39.858Y-94.607
X45.018Y-99.045
X45.018Y-101.585
X45.018Y-104.125
X45.018Y-106.665
X45.018Y-109.205
X45.018Y-111.745
X45.018Y-114.285
X45.018Y-116.825
X47.535Y-94.617
X47.591Y-99.079
X47.591Y-101.619
X47.591Y-104.159
X47.591Y-106.699
X47.591Y-109.239
X47.591Y-111.779
X47.591Y-114.319
X47.591Y-116.859
X47.74Y-36.909
X47.74Y-39.45
X47.74Y-41.9
X49.52Y-52.15
X49.52Y-62.3
X49.52Y-67.45
X49.587Y-87.1
X49.632Y-81.788
X50.157Y-121.412
X52.675Y-79.985
X52.692Y-77.42
X52.7Y-74.88
X52.703Y-82.563
X52.724Y-72.37
X52.74Y-69.77
X52.75Y-62.157
X55.211Y-99.079
X55.211Y-101.619
X55.211Y-104.159
X55.211Y-106.699
X55.211Y-109.239
X55.211Y-111.779
X55.211Y-114.319
X55.211Y-116.859
X56.382Y-12.944
X56.382Y-25.344
X57.818Y-99.06
X57.818Y-101.6
X57.818Y-104.14
X57.818Y-106.68
X57.818Y-109.22
X57.818Y-111.76
X57.818Y-114.3
X57.818Y-116.84
X57.834Y-121.239
X58.922Y-12.944
X58.922Y-25.344
X60.235Y-94.617
X61.468Y-12.954
X61.468Y-25.654
X65.375Y-79.985
X65.392Y-77.42
X65.4Y-74.88
X65.403Y-82.563
X65.424Y-72.37
X65.438Y-99.06
X65.438Y-101.6
X65.438Y-104.14
X65.438Y-106.68
X65.438Y-109.22
X65.438Y-111.76
X65.438Y-114.3
X65.438Y-116.84
X65.44Y-69.77
X65.45Y-62.157
X66.72Y-12.95
X66.72Y-25.35
X67.876Y-94.601
X68.009Y-99.05
X68.009Y-101.59
X68.009Y-104.13
X68.009Y-106.67
X68.009Y-109.21
X68.009Y-111.75
X68.009Y-114.29
X68.009Y-116.83
X68.072Y-39.37
X68.072Y-41.91
X68.072Y-44.45
X68.072Y-46.99
X68.072Y-49.53
X68.072Y-52.07
X68.072Y-54.61
X68.072Y-57.15
X68.072Y-59.69
X68.072Y-62.23
X68.072Y-64.77
X68.072Y-67.31
X68.072Y-69.85
X68.072Y-72.39
X68.072Y-74.93
X68.072Y-77.47
X68.072Y-80.01
X68.072Y-82.55
X68.072Y-85.09
X68.072Y-87.63
X69.453Y-15.392
X69.459Y-17.964
X70.534Y-121.239
X75.629Y-99.05
X75.629Y-101.59
X75.629Y-104.13
X75.629Y-106.67
X75.629Y-109.21
X75.629Y-111.75
X75.629Y-114.29
X75.629Y-116.83
X78.05Y-121.207
X78.218Y-99.043
X78.218Y-101.583
X78.218Y-104.123
X78.218Y-106.663
X78.218Y-109.203
X78.218Y-111.743
X78.218Y-114.283
X78.218Y-116.823
X80.576Y-94.601
X82.153Y-15.392
X82.159Y-17.964
X83.312Y-39.37
X83.312Y-41.91
X83.312Y-44.45
X83.312Y-46.99
X83.312Y-49.53
X83.312Y-52.07
X83.312Y-54.61
X83.312Y-57.15
X83.312Y-59.69
X83.312Y-62.23
X83.312Y-64.77
X83.312Y-67.31
X83.312Y-69.85
X83.312Y-72.39
X83.312Y-74.93
X83.312Y-77.47
X83.312Y-80.01
X83.312Y-82.55
X83.312Y-85.09
X83.312Y-87.63
X85.838Y-99.043
X85.838Y-101.583
X85.838Y-104.123
X85.838Y-106.663
X85.838Y-109.203
X85.838Y-111.743
X85.838Y-114.283
X85.838Y-116.823
X90.75Y-121.207
X94.78Y-16.561
X94.78Y-19.101
X94.78Y-21.641
X94.78Y-24.181
X94.78Y-26.721
X94.78Y-29.261
X94.78Y-31.801
X94.78Y-34.341
X95.98Y-101.549
X96.002Y-98.965
X96.536Y-41.926
X96.536Y-44.466
X96.536Y-47.006
X96.536Y-49.546
X96.536Y-52.086
X96.536Y-54.626
X96.536Y-57.166
X96.536Y-59.706
X102.4Y-16.561
X102.4Y-19.101
X102.4Y-21.641
X102.4Y-24.181
X102.4Y-26.721
X102.4Y-29.261
X102.4Y-31.801
X102.4Y-34.341
X103.495Y-93.349
X104.156Y-41.926
X104.156Y-44.466
X104.156Y-47.006
X104.156Y-49.546
X104.156Y-52.086
X104.156Y-54.626
X104.156Y-57.166
X104.156Y-59.706
X108.68Y-101.549
X108.702Y-98.965
X109.728Y-16.51
X109.728Y-19.05
X109.728Y-21.59
X109.728Y-24.13
X109.728Y-26.67
X109.728Y-29.21
X109.728Y-31.75
X109.728Y-34.29
X109.871Y-121.218
X109.982Y-41.91
X109.982Y-44.45
X109.982Y-46.99
X109.982Y-49.53
X109.982Y-52.07
X109.982Y-54.61
X109.982Y-57.15
X112.268Y-99.06
X112.268Y-101.6
X112.268Y-104.14
X112.268Y-106.68
X112.268Y-109.22
X112.268Y-111.76
X112.268Y-114.3
X112.268Y-116.84
X116.195Y-93.349
X117.348Y-16.51
X117.348Y-19.05
X117.348Y-21.59
X117.348Y-24.13
X117.348Y-26.67
X117.348Y-29.21
X117.348Y-31.75
X117.348Y-34.29
X117.602Y-41.91
X117.602Y-44.45
X117.602Y-46.99
X117.602Y-49.53
X117.602Y-52.07
X117.602Y-54.61
X117.602Y-57.15
X117.602Y-71.12
X117.602Y-73.66
X117.602Y-76.2
X117.602Y-78.74
X117.602Y-81.28
X117.602Y-83.82
X117.602Y-86.36
X117.602Y-88.9
X118.972Y-93.131
X119.888Y-99.06
X119.888Y-101.6
X119.888Y-104.14
X119.888Y-106.68
X119.888Y-109.22
X119.888Y-111.76
X119.888Y-114.3
X119.888Y-116.84
X120.248Y-12.869
X122.571Y-121.218
X122.682Y-99.06
X122.682Y-101.6
X122.682Y-104.14
X122.682Y-106.68
X122.682Y-109.22
X122.682Y-111.76
X122.682Y-114.3
X122.682Y-116.84
X125.187Y-121.278
X125.222Y-16.51
X125.222Y-19.05
X125.222Y-21.59
X125.222Y-24.13
X125.222Y-26.67
X125.222Y-29.21
X125.222Y-31.75
X125.222Y-34.29
X125.222Y-41.91
X125.222Y-44.45
X125.222Y-46.99
X125.222Y-49.53
X125.222Y-52.07
X125.222Y-54.61
X125.222Y-57.15
X125.222Y-71.12
X125.222Y-73.66
X125.222Y-76.2
X125.222Y-78.74
X125.222Y-81.28
X125.222Y-83.82
X125.222Y-86.36
X125.222Y-88.9
X127.762Y-71.12
X127.762Y-73.66
X127.762Y-76.2
X127.762Y-78.74
X127.762Y-81.28
X127.762Y-83.82
X127.762Y-86.36
X127.762Y-88.9
X130.302Y-99.06
X130.302Y-101.6
X130.302Y-104.14
X130.302Y-106.68
X130.302Y-109.22
X130.302Y-111.76
X130.302Y-114.3
X130.302Y-116.84
X131.672Y-93.131
X132.842Y-16.51
X132.842Y-19.05
X132.842Y-21.59
X132.842Y-24.13
X132.842Y-26.67
X132.842Y-29.21
X132.842Y-31.75
X132.842Y-34.29
X132.842Y-41.91
X132.842Y-44.45
X132.842Y-46.99
X132.842Y-49.53
X132.842Y-52.07
X132.842Y-54.61
X132.842Y-57.15
X132.842Y-99.06
X132.842Y-101.6
X132.842Y-104.14
X132.842Y-106.68
X132.842Y-109.22
X132.842Y-111.76
X132.842Y-114.3
X132.842Y-116.84
X132.948Y-12.869
X134.02Y-93.141
X135.382Y-71.12
X135.382Y-73.66
X135.382Y-76.2
X135.382Y-78.74
X135.382Y-81.28
X135.382Y-83.82
X135.382Y-86.36
X135.382Y-88.9
X137.887Y-121.278
X137.922Y-71.12
X137.922Y-73.66
X137.922Y-76.2
X137.922Y-78.74
X137.922Y-81.28
X137.922Y-83.82
X137.922Y-86.36
X137.922Y-88.9
X140.449Y-121.25
X140.462Y-16.51
X140.462Y-19.05
X140.462Y-21.59
X140.462Y-24.13
X140.462Y-26.67
X140.462Y-29.21
X140.462Y-31.75
X140.462Y-34.29
X140.462Y-36.83
X140.462Y-39.37
X140.462Y-41.91
X140.462Y-44.45
X140.462Y-46.99
X140.462Y-49.53
X140.462Y-52.07
X140.462Y-54.61
X140.462Y-57.15
X140.462Y-59.69
X140.462Y-62.23
X140.462Y-64.77
X140.462Y-99.06
X140.462Y-101.6
X140.462Y-104.14
X140.462Y-106.68
X140.462Y-109.22
X140.462Y-111.76
X140.462Y-114.3
X140.462Y-116.84
X143.002Y-99.06
X143.002Y-101.6
X143.002Y-104.14
X143.002Y-106.68
X143.002Y-109.22
X143.002Y-111.76
X143.002Y-114.3
X143.002Y-116.84
X145.542Y-71.12
X145.542Y-73.66
X145.542Y-76.2
X145.542Y-78.74
X145.542Y-81.28
X145.542Y-83.82
X145.542Y-86.36
X145.542Y-88.9
X146.72Y-93.141
X148.082Y-71.12
X148.082Y-73.66
X148.082Y-76.2
X148.082Y-78.74
X148.082Y-81.28
X148.082Y-83.82
X148.082Y-86.36
X148.082Y-88.9
X149.286Y-93.153
X150.622Y-99.06
X150.622Y-101.6
X150.622Y-104.14
X150.622Y-106.68
X150.622Y-109.22
X150.622Y-111.76
X150.622Y-114.3
X150.622Y-116.84
X153.149Y-121.25
X155.702Y-16.51
X155.702Y-19.05
X155.702Y-21.59
X155.702Y-24.13
X155.702Y-26.67
X155.702Y-29.21
X155.702Y-31.75
X155.702Y-34.29
X155.702Y-36.83
X155.702Y-39.37
X155.702Y-41.91
X155.702Y-44.45
X155.702Y-46.99
X155.702Y-49.53
X155.702Y-52.07
X155.702Y-54.61
X155.702Y-57.15
X155.702Y-59.69
X155.702Y-62.23
X155.702Y-64.77
X155.702Y-71.12
X155.702Y-73.66
X155.702Y-76.2
X155.702Y-78.74
X155.702Y-81.28
X155.702Y-83.82
X155.702Y-86.36
X155.702Y-88.9
X155.775Y-121.191
X161.986Y-93.153
X163.322Y-16.51
X163.322Y-19.05
X163.322Y-21.59
X163.322Y-24.13
X163.322Y-26.67
X163.322Y-29.21
X163.322Y-31.75
X163.322Y-34.29
X163.322Y-36.83
X163.322Y-39.37
X163.322Y-41.91
X163.322Y-44.45
X163.322Y-46.99
X163.322Y-49.53
X166.944Y-103.913
X167.154Y-74.173
X167.165Y-71.602
X167.179Y-76.739
X167.179Y-79.279
X167.179Y-81.768
X167.188Y-63.865
X167.193Y-69.041
X167.213Y-66.498
X168.475Y-121.191
X169.164Y-12.7
X178.562Y-16.51
X178.562Y-19.05
X178.562Y-21.59
X178.562Y-24.13
X178.562Y-26.67
X178.562Y-29.21
X178.562Y-31.75
X178.562Y-34.29
X178.562Y-36.83
X178.562Y-39.37
X178.562Y-41.91
X178.562Y-44.45
X178.562Y-46.99
X178.562Y-49.53
X179.644Y-103.913
X179.854Y-74.173
X179.865Y-71.602
X179.879Y-76.739
X179.879Y-79.279
X179.879Y-81.768
X179.888Y-63.865
X179.893Y-69.041
X179.913Y-66.498
X181.864Y-12.7
X182.273Y-101.931
X182.372Y-93.726
X182.409Y-75.966
X182.419Y-59.568
X182.419Y-64.648
X182.478Y-54.525
X182.478Y-57.065
X194.973Y-101.931
X195.072Y-93.726
X195.109Y-75.966
X195.119Y-59.568
X195.119Y-64.648
X195.178Y-54.525
X195.178Y-57.065
X197.718Y-54.525
X197.718Y-59.605
X210.418Y-54.525
X210.418Y-59.605
T6
X83.302Y-5.836
X83.309Y-3.315
X83.318Y-8.407
X90.922Y-5.836
X90.929Y-3.315
X90.938Y-8.407
X94.736Y-3.3
X94.742Y-5.842
X94.742Y-8.382
X102.356Y-3.3
X102.362Y-5.842
X102.362Y-8.382
X197.863Y-95.51
X197.863Y-103.13
X205.483Y-95.51
X205.483Y-103.13
T7
X2.809Y-17.437
X2.909Y-27.291
X50.282Y-35.563
X50.282Y-40.643
X54.044Y-29.29
X59.182Y-29.21
T8
X30.988Y-75.525
X30.988Y-77.44
X33.528Y-75.525
X33.528Y-77.44
X36.068Y-75.525
X36.068Y-77.44
X38.608Y-75.525
X38.608Y-77.44
X41.148Y-75.525
X41.148Y-77.44
X168.41Y-86.961
X168.41Y-88.876
X170.95Y-86.961
X170.95Y-88.876
X173.49Y-86.961
X173.49Y-88.876
X176.03Y-86.961
X176.03Y-88.876
X178.57Y-86.961
X178.57Y-88.876
X181.11Y-86.961
X181.11Y-88.876
X183.65Y-86.961
X183.65Y-88.876
X186.19Y-86.961
X186.19Y-88.876
T9
X210.306Y-16.383
X210.306Y-18.923
X210.306Y-21.463
T10
X6.858Y-49.022
X6.858Y-69.342
X6.858Y-71.882
X6.858Y-91.882
X87.63Y-15.494
X87.63Y-38.094
X88.138Y-41.91
X88.138Y-62.23
X89.662Y-111.252
X89.662Y-117.348
X109.982Y-111.252
X109.982Y-117.348
X159.1Y-96.266
X159.1Y-116.586
X161.29Y-69.85
X161.29Y-89.85
X182.372Y-42.926
X182.372Y-49.53
X182.372Y-71.628
X182.372Y-80.264
X202.692Y-42.926
X202.692Y-49.53
X202.692Y-71.628
X202.692Y-80.264
T11
X204.556Y-110.072
X204.587Y-120.164
T12
X193.78Y-27.915
X193.78Y-31.725
X193.78Y-36.551
X202.416Y-27.915
X202.416Y-31.725
X202.416Y-36.551
T13
X8.033Y-17.99
X46.895Y-17.99
T6
G00X54.632Y-6.264
M15
G01X54.632Y-4.264
M16
G05
G00X54.632Y-8.404
M15
G01X54.632Y-10.404
M16
G05
G00X64.284Y-8.404
M15
G01X64.284Y-10.404
M16
G05
G00X69.285Y-6.229
M15
G01X69.285Y-4.229
M16
G05
G00X69.285Y-8.369
M15
G01X69.285Y-10.369
M16
G05
G00X78.937Y-8.369
M15
G01X78.937Y-10.369
M16
G05
G00X201.037Y-6.258
M15
G01X201.037Y-8.258
M16
G05
G00X206.609Y-3.702
M15
G01X204.609Y-3.702
M16
G05
G00X206.609Y-10.814
M15
G01X204.609Y-10.814
M16
G05
G00X210.689Y-6.258
M15
G01X210.689Y-8.258
M16
G05
M30
