%TF.GenerationSoftware,KiCad,Pcbnew,10.0.4*%
%TF.CreationDate,2026-08-16T15:06:36+01:00*%
%TF.ProjectId,Issue3B,49737375-6533-4422-9e6b-696361645f70,rev?*%
%TF.SameCoordinates,Original*%
%TF.FileFunction,Legend,Bot*%
%TF.FilePolarity,Positive*%
%FSLAX46Y46*%
G04 Gerber Fmt 4.6, Leading zero omitted, Abs format (unit mm)*
G04 Created by KiCad (PCBNEW 10.0.4) date 2026-08-16 15:06:36*
%MOMM*%
%LPD*%
G01*
G04 APERTURE LIST*
%ADD10C,0.222000*%
G04 APERTURE END LIST*
D10*
X114963000Y-787600D02*
X114496400Y-2032000D01*
X115243000Y-1565300D02*
X114683000Y-1565300D01*
X115429700Y-2032000D02*
X114963000Y-787600D01*
X115865300Y-787600D02*
X115865300Y-2032000D01*
X116332000Y-1254200D02*
X115865300Y-787600D01*
X188684700Y-1041600D02*
X188218100Y-2286000D01*
X188964700Y-1819300D02*
X188404700Y-1819300D01*
X189151400Y-2286000D02*
X188684700Y-1041600D01*
X189587000Y-1274900D02*
X189587000Y-1430400D01*
X189587000Y-1430400D02*
X189680400Y-1586000D01*
X189587000Y-1897100D02*
X189587000Y-2052700D01*
X189587000Y-2052700D02*
X189680400Y-2208200D01*
X189680400Y-1119300D02*
X189587000Y-1274900D01*
X189680400Y-1586000D02*
X189867000Y-1663800D01*
X189680400Y-1741600D02*
X189587000Y-1897100D01*
X189680400Y-2208200D02*
X189867000Y-2286000D01*
X189867000Y-1041600D02*
X189680400Y-1119300D01*
X189867000Y-1663800D02*
X189680400Y-1741600D01*
X189867000Y-1663800D02*
X190053700Y-1663800D01*
X189867000Y-2286000D02*
X190053700Y-2286000D01*
X190053700Y-1041600D02*
X189867000Y-1041600D01*
X190053700Y-1663800D02*
X190240400Y-1586000D01*
X190053700Y-2286000D02*
X190240400Y-2208200D01*
X190240400Y-1119300D02*
X190053700Y-1041600D01*
X190240400Y-1586000D02*
X190333700Y-1430400D01*
X190240400Y-1741600D02*
X190053700Y-1663800D01*
X190240400Y-2208200D02*
X190333700Y-2052700D01*
X190333700Y-1274900D02*
X190240400Y-1119300D01*
X190333700Y-1430400D02*
X190333700Y-1274900D01*
X190333700Y-1897100D02*
X190240400Y-1741600D01*
X190333700Y-2052700D02*
X190333700Y-1897100D01*
X190769300Y-1274900D02*
X190862700Y-1119300D01*
X190769300Y-1430400D02*
X190769300Y-1274900D01*
X190769300Y-2286000D02*
X191516000Y-2286000D01*
X190862700Y-1119300D02*
X191049300Y-1041600D01*
X190862700Y-1586000D02*
X190769300Y-1430400D01*
X191049300Y-1041600D02*
X191236000Y-1041600D01*
X191236000Y-1041600D02*
X191422700Y-1119300D01*
X191422700Y-1119300D02*
X191516000Y-1274900D01*
X191422700Y-2052700D02*
X190862700Y-1586000D01*
X191516000Y-2208200D02*
X191422700Y-2052700D01*
X191516000Y-2286000D02*
X191516000Y-2208200D01*
M02*
