%TF.GenerationSoftware,KiCad,Pcbnew,10.0.4*%
%TF.CreationDate,2026-09-27T20:04:30+01:00*%
%TF.ProjectId,Issue3B,49737375-6533-4422-9e6b-696361645f70,rev?*%
%TF.SameCoordinates,Original*%
%TF.FileFunction,Profile,NP*%
%FSLAX46Y46*%
G04 Gerber Fmt 4.6, Leading zero omitted, Abs format (unit mm)*
G04 Created by KiCad (PCBNEW 10.0.4) date 2026-09-27 20:04:30*
%MOMM*%
%LPD*%
G01*
G04 APERTURE LIST*
%TA.AperFunction,Profile*%
%ADD10C,0.050000*%
%TD*%
%TA.AperFunction,Profile*%
%ADD11C,0.305000*%
%TD*%
G04 APERTURE END LIST*
D10*
X109080000Y-5000000D02*
G75*
G02*
X105778000Y-5000000I-1651000J0D01*
G01*
X105778000Y-5000000D02*
G75*
G02*
X109080000Y-5000000I1651000J0D01*
G01*
X7480000Y-44497000D02*
G75*
G02*
X3162000Y-44497000I-2159000J0D01*
G01*
X3162000Y-44497000D02*
G75*
G02*
X7480000Y-44497000I2159000J0D01*
G01*
X6845000Y-125015000D02*
G75*
G02*
X3543000Y-125015000I-1651000J0D01*
G01*
X3543000Y-125015000D02*
G75*
G02*
X6845000Y-125015000I1651000J0D01*
G01*
X211315000Y-125015000D02*
G75*
G02*
X208013000Y-125015000I-1651000J0D01*
G01*
X208013000Y-125015000D02*
G75*
G02*
X211315000Y-125015000I1651000J0D01*
G01*
X211823000Y-43390000D02*
G75*
G02*
X207505000Y-43390000I-2159000J0D01*
G01*
X207505000Y-43390000D02*
G75*
G02*
X211823000Y-43390000I2159000J0D01*
G01*
D11*
X876000Y0D02*
X876000Y-130048000D01*
X876000Y-130048000D02*
X213982000Y-130048000D01*
X876000Y0D02*
X127000000Y0D01*
X127000000Y0D02*
X127000000Y-8509000D01*
X129000000Y0D02*
X129000000Y-8509000D01*
X127000000Y-8509000D02*
X129000000Y-8508000D01*
X129000000Y0D02*
X213982000Y0D01*
X213982000Y0D02*
X213982000Y-130048000D01*
%TO.C,LS1*%
X198369325Y-115103275D02*
G75*
G02*
X183129325Y-115103275I-7620000J0D01*
G01*
X183129325Y-115103275D02*
G75*
G02*
X198369325Y-115103275I7620000J0D01*
G01*
%TD*%
M02*
